<?xml version="1.0" encoding="UTF-8" standalone="no"?>
<!DOCTYPE svg PUBLIC "-//W3C//DTD SVG 1.1//EN"
 "http://www.w3.org/Graphics/SVG/1.1/DTD/svg11.dtd">
<!-- Generated by graphviz version 2.50.0 (0)
 -->
<!-- Title: Tree Pages: 1 -->
<svg width="720pt" height="434pt"
 viewBox="0.00 0.00 720.00 434.31" xmlns="http://www.w3.org/2000/svg" xmlns:xlink="http://www.w3.org/1999/xlink">
<g id="graph0" class="graph" transform="scale(0.72 0.72) rotate(0) translate(4 598.6)">
<title>Tree</title>
<polygon fill="white" stroke="transparent" points="-4,4 -4,-598.6 995,-598.6 995,4 -4,4"/>
<!-- 0 -->
<g id="node1" class="node">
<title>0</title>
<path fill="#f6d3ba" stroke="black" d="M517,-573C517,-573 416,-573 416,-573 410,-573 404,-567 404,-561 404,-561 404,-517 404,-517 404,-511 410,-505 416,-505 416,-505 517,-505 517,-505 523,-505 529,-511 529,-517 529,-517 529,-561 529,-561 529,-567 523,-573 517,-573"/>
<text text-anchor="start" x="437.5" y="-557.8" font-family="Helvetica,sans-Serif" font-size="14.00">Sex ≤ 0.5</text>
<text text-anchor="start" x="434.5" y="-542.8" font-family="Helvetica,sans-Serif" font-size="14.00">gini = 0.48</text>
<text text-anchor="start" x="421.5" y="-527.8" font-family="Helvetica,sans-Serif" font-size="14.00">samples = 668</text>
<text text-anchor="start" x="412" y="-512.8" font-family="Helvetica,sans-Serif" font-size="14.00">value = [405, 263]</text>
</g>
<!-- 1 -->
<g id="node2" class="node">
<title>1</title>
<path fill="#7ebfee" stroke="black" d="M402.5,-404C402.5,-404 286.5,-404 286.5,-404 280.5,-404 274.5,-398 274.5,-392 274.5,-392 274.5,-348 274.5,-348 274.5,-342 280.5,-336 286.5,-336 286.5,-336 402.5,-336 402.5,-336 408.5,-336 414.5,-342 414.5,-348 414.5,-348 414.5,-392 414.5,-392 414.5,-398 408.5,-404 402.5,-404"/>
<text text-anchor="start" x="307.5" y="-388.8" font-family="Helvetica,sans-Serif" font-size="14.00">Pclass ≤ 2.5</text>
<text text-anchor="start" x="312.5" y="-373.8" font-family="Helvetica,sans-Serif" font-size="14.00">gini = 0.38</text>
<text text-anchor="start" x="299.5" y="-358.8" font-family="Helvetica,sans-Serif" font-size="14.00">samples = 241</text>
<text text-anchor="start" x="282.5" y="-343.8" font-family="Helvetica,sans-Serif" font-size="14.00">value = [62.0, 179.0]</text>
</g>
<!-- 0&#45;&gt;1 -->
<g id="edge1" class="edge">
<title>0&#45;&gt;1</title>
<path fill="none" stroke="black" d="M442.1,-504.61C422.67,-478.01 395.38,-440.65 374.6,-412.2"/>
<polygon fill="black" stroke="black" points="377.37,-410.06 368.64,-404.05 371.72,-414.19 377.37,-410.06"/>
<text text-anchor="middle" x="364.8" y="-425.05" font-family="Helvetica,sans-Serif" font-size="14.00">True</text>
</g>
<!-- 8 -->
<g id="node9" class="node">
<title>8</title>
<path fill="#eba069" stroke="black" d="M645,-404C645,-404 552,-404 552,-404 546,-404 540,-398 540,-392 540,-392 540,-348 540,-348 540,-342 546,-336 552,-336 552,-336 645,-336 645,-336 651,-336 657,-342 657,-348 657,-348 657,-392 657,-392 657,-398 651,-404 645,-404"/>
<text text-anchor="start" x="569.5" y="-388.8" font-family="Helvetica,sans-Serif" font-size="14.00">Age ≤ 3.5</text>
<text text-anchor="start" x="566.5" y="-373.8" font-family="Helvetica,sans-Serif" font-size="14.00">gini = 0.32</text>
<text text-anchor="start" x="553.5" y="-358.8" font-family="Helvetica,sans-Serif" font-size="14.00">samples = 427</text>
<text text-anchor="start" x="548" y="-343.8" font-family="Helvetica,sans-Serif" font-size="14.00">value = [343, 84]</text>
</g>
<!-- 0&#45;&gt;8 -->
<g id="edge8" class="edge">
<title>0&#45;&gt;8</title>
<path fill="none" stroke="black" d="M492.89,-504.61C513.92,-478.01 543.45,-440.65 565.94,-412.2"/>
<polygon fill="black" stroke="black" points="568.92,-414.07 572.38,-404.05 563.43,-409.73 568.92,-414.07"/>
<text text-anchor="middle" x="575.28" y="-425.18" font-family="Helvetica,sans-Serif" font-size="14.00">False</text>
</g>
<!-- 2 -->
<g id="node3" class="node">
<title>2</title>
<path fill="#46a3e7" stroke="black" d="M211.5,-234C211.5,-234 125.5,-234 125.5,-234 119.5,-234 113.5,-228 113.5,-222 113.5,-222 113.5,-178 113.5,-178 113.5,-172 119.5,-166 125.5,-166 125.5,-166 211.5,-166 211.5,-166 217.5,-166 223.5,-172 223.5,-178 223.5,-178 223.5,-222 223.5,-222 223.5,-228 217.5,-234 211.5,-234"/>
<text text-anchor="start" x="139.5" y="-218.8" font-family="Helvetica,sans-Serif" font-size="14.00">Age ≤ 2.5</text>
<text text-anchor="start" x="136.5" y="-203.8" font-family="Helvetica,sans-Serif" font-size="14.00">gini = 0.12</text>
<text text-anchor="start" x="123.5" y="-188.8" font-family="Helvetica,sans-Serif" font-size="14.00">samples = 130</text>
<text text-anchor="start" x="121.5" y="-173.8" font-family="Helvetica,sans-Serif" font-size="14.00">value = [8, 122]</text>
</g>
<!-- 1&#45;&gt;2 -->
<g id="edge2" class="edge">
<title>1&#45;&gt;2</title>
<path fill="none" stroke="black" d="M309.73,-335.81C281.28,-308.66 240.95,-270.16 210.67,-241.25"/>
<polygon fill="black" stroke="black" points="212.85,-238.5 203.2,-234.12 208.02,-243.56 212.85,-238.5"/>
</g>
<!-- 5 -->
<g id="node6" class="node">
<title>5</title>
<path fill="#f5fafe" stroke="black" d="M387.5,-234C387.5,-234 301.5,-234 301.5,-234 295.5,-234 289.5,-228 289.5,-222 289.5,-222 289.5,-178 289.5,-178 289.5,-172 295.5,-166 301.5,-166 301.5,-166 387.5,-166 387.5,-166 393.5,-166 399.5,-172 399.5,-178 399.5,-178 399.5,-222 399.5,-222 399.5,-228 393.5,-234 387.5,-234"/>
<text text-anchor="start" x="309.5" y="-218.8" font-family="Helvetica,sans-Serif" font-size="14.00">Fare ≤ 3.19</text>
<text text-anchor="start" x="316.5" y="-203.8" font-family="Helvetica,sans-Serif" font-size="14.00">gini = 0.5</text>
<text text-anchor="start" x="300.5" y="-188.8" font-family="Helvetica,sans-Serif" font-size="14.00">samples = 111</text>
<text text-anchor="start" x="297.5" y="-173.8" font-family="Helvetica,sans-Serif" font-size="14.00">value = [54, 57]</text>
</g>
<!-- 1&#45;&gt;5 -->
<g id="edge5" class="edge">
<title>1&#45;&gt;5</title>
<path fill="none" stroke="black" d="M344.5,-335.81C344.5,-309.58 344.5,-272.76 344.5,-244.22"/>
<polygon fill="black" stroke="black" points="348,-244.12 344.5,-234.12 341,-244.12 348,-244.12"/>
</g>
<!-- 3 -->
<g id="node4" class="node">
<title>3</title>
<path fill="#e58139" stroke="black" d="M83,-69.5C83,-69.5 12,-69.5 12,-69.5 6,-69.5 0,-63.5 0,-57.5 0,-57.5 0,-28.5 0,-28.5 0,-22.5 6,-16.5 12,-16.5 12,-16.5 83,-16.5 83,-16.5 89,-16.5 95,-22.5 95,-28.5 95,-28.5 95,-57.5 95,-57.5 95,-63.5 89,-69.5 83,-69.5"/>
<text text-anchor="start" x="19.5" y="-54.3" font-family="Helvetica,sans-Serif" font-size="14.00">gini = 0.0</text>
<text text-anchor="start" x="10" y="-39.3" font-family="Helvetica,sans-Serif" font-size="14.00">samples = 1</text>
<text text-anchor="start" x="8" y="-24.3" font-family="Helvetica,sans-Serif" font-size="14.00">value = [1, 0]</text>
</g>
<!-- 2&#45;&gt;3 -->
<g id="edge3" class="edge">
<title>2&#45;&gt;3</title>
<path fill="none" stroke="black" d="M142.54,-165.75C122.24,-139.74 94.13,-103.74 73.76,-77.63"/>
<polygon fill="black" stroke="black" points="76.34,-75.26 67.43,-69.53 70.83,-79.57 76.34,-75.26"/>
</g>
<!-- 4 -->
<g id="node5" class="node">
<title>4</title>
<path fill="#44a3e6" stroke="black" d="M211.5,-69.5C211.5,-69.5 125.5,-69.5 125.5,-69.5 119.5,-69.5 113.5,-63.5 113.5,-57.5 113.5,-57.5 113.5,-28.5 113.5,-28.5 113.5,-22.5 119.5,-16.5 125.5,-16.5 125.5,-16.5 211.5,-16.5 211.5,-16.5 217.5,-16.5 223.5,-22.5 223.5,-28.5 223.5,-28.5 223.5,-57.5 223.5,-57.5 223.5,-63.5 217.5,-69.5 211.5,-69.5"/>
<text text-anchor="start" x="140.5" y="-54.3" font-family="Helvetica,sans-Serif" font-size="14.00">gini = 0.1</text>
<text text-anchor="start" x="123.5" y="-39.3" font-family="Helvetica,sans-Serif" font-size="14.00">samples = 129</text>
<text text-anchor="start" x="121.5" y="-24.3" font-family="Helvetica,sans-Serif" font-size="14.00">value = [7, 122]</text>
</g>
<!-- 2&#45;&gt;4 -->
<g id="edge4" class="edge">
<title>2&#45;&gt;4</title>
<path fill="none" stroke="black" d="M168.5,-165.75C168.5,-140.42 168.5,-105.6 168.5,-79.69"/>
<polygon fill="black" stroke="black" points="172,-79.53 168.5,-69.53 165,-79.53 172,-79.53"/>
</g>
<!-- 6 -->
<g id="node7" class="node">
<title>6</title>
<path fill="#aed7f4" stroke="black" d="M339.5,-69.5C339.5,-69.5 253.5,-69.5 253.5,-69.5 247.5,-69.5 241.5,-63.5 241.5,-57.5 241.5,-57.5 241.5,-28.5 241.5,-28.5 241.5,-22.5 247.5,-16.5 253.5,-16.5 253.5,-16.5 339.5,-16.5 339.5,-16.5 345.5,-16.5 351.5,-22.5 351.5,-28.5 351.5,-28.5 351.5,-57.5 351.5,-57.5 351.5,-63.5 345.5,-69.5 339.5,-69.5"/>
<text text-anchor="start" x="264.5" y="-54.3" font-family="Helvetica,sans-Serif" font-size="14.00">gini = 0.47</text>
<text text-anchor="start" x="255.5" y="-39.3" font-family="Helvetica,sans-Serif" font-size="14.00">samples = 89</text>
<text text-anchor="start" x="249.5" y="-24.3" font-family="Helvetica,sans-Serif" font-size="14.00">value = [33, 56]</text>
</g>
<!-- 5&#45;&gt;6 -->
<g id="edge6" class="edge">
<title>5&#45;&gt;6</title>
<path fill="none" stroke="black" d="M334.2,-165.75C326.32,-140.31 315.48,-105.29 307.45,-79.34"/>
<polygon fill="black" stroke="black" points="310.71,-78.05 304.41,-69.53 304.02,-80.12 310.71,-78.05"/>
</g>
<!-- 7 -->
<g id="node8" class="node">
<title>7</title>
<path fill="#e68742" stroke="black" d="M459.5,-69.5C459.5,-69.5 381.5,-69.5 381.5,-69.5 375.5,-69.5 369.5,-63.5 369.5,-57.5 369.5,-57.5 369.5,-28.5 369.5,-28.5 369.5,-22.5 375.5,-16.5 381.5,-16.5 381.5,-16.5 459.5,-16.5 459.5,-16.5 465.5,-16.5 471.5,-22.5 471.5,-28.5 471.5,-28.5 471.5,-57.5 471.5,-57.5 471.5,-63.5 465.5,-69.5 459.5,-69.5"/>
<text text-anchor="start" x="388.5" y="-54.3" font-family="Helvetica,sans-Serif" font-size="14.00">gini = 0.09</text>
<text text-anchor="start" x="379.5" y="-39.3" font-family="Helvetica,sans-Serif" font-size="14.00">samples = 22</text>
<text text-anchor="start" x="377.5" y="-24.3" font-family="Helvetica,sans-Serif" font-size="14.00">value = [21, 1]</text>
</g>
<!-- 5&#45;&gt;7 -->
<g id="edge7" class="edge">
<title>5&#45;&gt;7</title>
<path fill="none" stroke="black" d="M360.8,-165.75C373.39,-140.08 390.75,-104.67 403.51,-78.66"/>
<polygon fill="black" stroke="black" points="406.72,-80.05 407.98,-69.53 400.44,-76.97 406.72,-80.05"/>
</g>
<!-- 9 -->
<g id="node10" class="node">
<title>9</title>
<path fill="#74baed" stroke="black" d="M637.5,-234C637.5,-234 559.5,-234 559.5,-234 553.5,-234 547.5,-228 547.5,-222 547.5,-222 547.5,-178 547.5,-178 547.5,-172 553.5,-166 559.5,-166 559.5,-166 637.5,-166 637.5,-166 643.5,-166 649.5,-172 649.5,-178 649.5,-178 649.5,-222 649.5,-222 649.5,-228 643.5,-234 637.5,-234"/>
<text text-anchor="start" x="563.5" y="-218.8" font-family="Helvetica,sans-Serif" font-size="14.00">SibSp ≤ 2.5</text>
<text text-anchor="start" x="566.5" y="-203.8" font-family="Helvetica,sans-Serif" font-size="14.00">gini = 0.36</text>
<text text-anchor="start" x="557.5" y="-188.8" font-family="Helvetica,sans-Serif" font-size="14.00">samples = 13</text>
<text text-anchor="start" x="555.5" y="-173.8" font-family="Helvetica,sans-Serif" font-size="14.00">value = [3, 10]</text>
</g>
<!-- 8&#45;&gt;9 -->
<g id="edge9" class="edge">
<title>8&#45;&gt;9</title>
<path fill="none" stroke="black" d="M598.5,-335.81C598.5,-309.58 598.5,-272.76 598.5,-244.22"/>
<polygon fill="black" stroke="black" points="602,-244.12 598.5,-234.12 595,-244.12 602,-244.12"/>
</g>
<!-- 12 -->
<g id="node13" class="node">
<title>12</title>
<path fill="#eb9c64" stroke="black" d="M836,-234C836,-234 743,-234 743,-234 737,-234 731,-228 731,-222 731,-222 731,-178 731,-178 731,-172 737,-166 743,-166 743,-166 836,-166 836,-166 842,-166 848,-172 848,-178 848,-178 848,-222 848,-222 848,-228 842,-234 836,-234"/>
<text text-anchor="start" x="752.5" y="-218.8" font-family="Helvetica,sans-Serif" font-size="14.00">Pclass ≤ 1.5</text>
<text text-anchor="start" x="757.5" y="-203.8" font-family="Helvetica,sans-Serif" font-size="14.00">gini = 0.29</text>
<text text-anchor="start" x="744.5" y="-188.8" font-family="Helvetica,sans-Serif" font-size="14.00">samples = 414</text>
<text text-anchor="start" x="739" y="-173.8" font-family="Helvetica,sans-Serif" font-size="14.00">value = [340, 74]</text>
</g>
<!-- 8&#45;&gt;12 -->
<g id="edge12" class="edge">
<title>8&#45;&gt;12</title>
<path fill="none" stroke="black" d="M636.24,-335.81C667.24,-308.54 711.24,-269.83 744.15,-240.89"/>
<polygon fill="black" stroke="black" points="746.65,-243.36 751.84,-234.12 742.02,-238.1 746.65,-243.36"/>
</g>
<!-- 10 -->
<g id="node11" class="node">
<title>10</title>
<path fill="#399de5" stroke="black" d="M579.5,-69.5C579.5,-69.5 501.5,-69.5 501.5,-69.5 495.5,-69.5 489.5,-63.5 489.5,-57.5 489.5,-57.5 489.5,-28.5 489.5,-28.5 489.5,-22.5 495.5,-16.5 501.5,-16.5 501.5,-16.5 579.5,-16.5 579.5,-16.5 585.5,-16.5 591.5,-22.5 591.5,-28.5 591.5,-28.5 591.5,-57.5 591.5,-57.5 591.5,-63.5 585.5,-69.5 579.5,-69.5"/>
<text text-anchor="start" x="512.5" y="-54.3" font-family="Helvetica,sans-Serif" font-size="14.00">gini = 0.0</text>
<text text-anchor="start" x="499.5" y="-39.3" font-family="Helvetica,sans-Serif" font-size="14.00">samples = 10</text>
<text text-anchor="start" x="497.5" y="-24.3" font-family="Helvetica,sans-Serif" font-size="14.00">value = [0, 10]</text>
</g>
<!-- 9&#45;&gt;10 -->
<g id="edge10" class="edge">
<title>9&#45;&gt;10</title>
<path fill="none" stroke="black" d="M586.06,-165.75C576.49,-140.19 563.32,-104.98 553.6,-79"/>
<polygon fill="black" stroke="black" points="556.84,-77.67 550.05,-69.53 550.28,-80.13 556.84,-77.67"/>
</g>
<!-- 11 -->
<g id="node12" class="node">
<title>11</title>
<path fill="#e58139" stroke="black" d="M693,-69.5C693,-69.5 622,-69.5 622,-69.5 616,-69.5 610,-63.5 610,-57.5 610,-57.5 610,-28.5 610,-28.5 610,-22.5 616,-16.5 622,-16.5 622,-16.5 693,-16.5 693,-16.5 699,-16.5 705,-22.5 705,-28.5 705,-28.5 705,-57.5 705,-57.5 705,-63.5 699,-69.5 693,-69.5"/>
<text text-anchor="start" x="629.5" y="-54.3" font-family="Helvetica,sans-Serif" font-size="14.00">gini = 0.0</text>
<text text-anchor="start" x="620" y="-39.3" font-family="Helvetica,sans-Serif" font-size="14.00">samples = 3</text>
<text text-anchor="start" x="618" y="-24.3" font-family="Helvetica,sans-Serif" font-size="14.00">value = [3, 0]</text>
</g>
<!-- 9&#45;&gt;11 -->
<g id="edge11" class="edge">
<title>9&#45;&gt;11</title>
<path fill="none" stroke="black" d="M611.16,-165.75C620.88,-140.19 634.29,-104.98 644.18,-79"/>
<polygon fill="black" stroke="black" points="647.49,-80.12 647.78,-69.53 640.95,-77.63 647.49,-80.12"/>
</g>
<!-- 13 -->
<g id="node14" class="node">
<title>13</title>
<path fill="#f3c7a6" stroke="black" d="M843.5,-69.5C843.5,-69.5 735.5,-69.5 735.5,-69.5 729.5,-69.5 723.5,-63.5 723.5,-57.5 723.5,-57.5 723.5,-28.5 723.5,-28.5 723.5,-22.5 729.5,-16.5 735.5,-16.5 735.5,-16.5 843.5,-16.5 843.5,-16.5 849.5,-16.5 855.5,-22.5 855.5,-28.5 855.5,-28.5 855.5,-57.5 855.5,-57.5 855.5,-63.5 849.5,-69.5 843.5,-69.5"/>
<text text-anchor="start" x="757.5" y="-54.3" font-family="Helvetica,sans-Serif" font-size="14.00">gini = 0.46</text>
<text text-anchor="start" x="748.5" y="-39.3" font-family="Helvetica,sans-Serif" font-size="14.00">samples = 90</text>
<text text-anchor="start" x="731.5" y="-24.3" font-family="Helvetica,sans-Serif" font-size="14.00">value = [58.0, 32.0]</text>
</g>
<!-- 12&#45;&gt;13 -->
<g id="edge13" class="edge">
<title>12&#45;&gt;13</title>
<path fill="none" stroke="black" d="M789.5,-165.75C789.5,-140.42 789.5,-105.6 789.5,-79.69"/>
<polygon fill="black" stroke="black" points="793,-79.53 789.5,-69.53 786,-79.53 793,-79.53"/>
</g>
<!-- 14 -->
<g id="node15" class="node">
<title>14</title>
<path fill="#e99456" stroke="black" d="M979,-69.5C979,-69.5 886,-69.5 886,-69.5 880,-69.5 874,-63.5 874,-57.5 874,-57.5 874,-28.5 874,-28.5 874,-22.5 880,-16.5 886,-16.5 886,-16.5 979,-16.5 979,-16.5 985,-16.5 991,-22.5 991,-28.5 991,-28.5 991,-57.5 991,-57.5 991,-63.5 985,-69.5 979,-69.5"/>
<text text-anchor="start" x="900.5" y="-54.3" font-family="Helvetica,sans-Serif" font-size="14.00">gini = 0.23</text>
<text text-anchor="start" x="887.5" y="-39.3" font-family="Helvetica,sans-Serif" font-size="14.00">samples = 324</text>
<text text-anchor="start" x="882" y="-24.3" font-family="Helvetica,sans-Serif" font-size="14.00">value = [282, 42]</text>
</g>
<!-- 12&#45;&gt;14 -->
<g id="edge14" class="edge">
<title>12&#45;&gt;14</title>
<path fill="none" stroke="black" d="M820.18,-165.75C844.38,-139.52 877.96,-103.11 902.09,-76.96"/>
<polygon fill="black" stroke="black" points="904.74,-79.26 908.94,-69.53 899.59,-74.51 904.74,-79.26"/>
</g>
</g>
</svg>
